<?xml version="1.0" encoding="UTF-8" standalone="no"?>
<!-- Created with Inkscape (http://www.inkscape.org/) -->

<svg
   xmlns:dc="http://purl.org/dc/elements/1.1/"
   xmlns:cc="http://creativecommons.org/ns#"
   xmlns:rdf="http://www.w3.org/1999/02/22-rdf-syntax-ns#"
   xmlns:svg="http://www.w3.org/2000/svg"
   xmlns="http://www.w3.org/2000/svg"
   xmlns:sodipodi="http://sodipodi.sourceforge.net/DTD/sodipodi-0.dtd"
   xmlns:inkscape="http://www.inkscape.org/namespaces/inkscape"
   width="400"
   height="200"
   viewBox="0 0 105.83333 52.916668"
   version="1.1"
   id="svg1399"
   inkscape:version="0.92.3 (2405546, 2018-03-11)"
   sodipodi:docname="ENO.svg">
  <defs
     id="defs1393" />
  <sodipodi:namedview
     id="base"
     pagecolor="#ffffff"
     bordercolor="#666666"
     borderopacity="1.0"
     inkscape:pageopacity="0.0"
     inkscape:pageshadow="2"
     inkscape:zoom="1.4"
     inkscape:cx="281.50244"
     inkscape:cy="110.17517"
     inkscape:document-units="mm"
     inkscape:current-layer="layer1"
     showgrid="false"
     units="px"
     inkscape:window-width="1920"
     inkscape:window-height="1025"
     inkscape:window-x="0"
     inkscape:window-y="0"
     inkscape:window-maximized="1" />
  <metadata
     id="metadata1396">
    <rdf:RDF>
      <cc:Work
         rdf:about="">
        <dc:format>image/svg+xml</dc:format>
        <dc:type
           rdf:resource="http://purl.org/dc/dcmitype/StillImage" />
        <dc:title></dc:title>
      </cc:Work>
    </rdf:RDF>
  </metadata>
  <g
     inkscape:label="Layer 1"
     inkscape:groupmode="layer"
     id="layer1"
     transform="translate(0,-244.08332)">
    <g
       transform="translate(-37.821338,183.98977)"
       id="g1167">
      <g
         id="g1359">
        <path
           style="fill:none;stroke:#505050;stroke-width:0.53151226;stroke-linecap:butt;stroke-linejoin:miter;stroke-miterlimit:4;stroke-dasharray:none;stroke-opacity:1"
           d="m 44.767645,74.780723 h 40.758602 l 10.156244,23.663461 40.892239,0.09449"
           id="path958"
           inkscape:connector-curvature="0"
           sodipodi:nodetypes="cccc" />
        <path
           style="fill:#5050c8;fill-opacity:1;stroke-width:0.26458332"
           d="m 67.760198,74.908714 a 2.4568453,2.4568453 0 0 1 -2.456846,2.456846 2.4568453,2.4568453 0 0 1 -2.456845,-2.456846 2.4568453,2.4568453 0 0 1 2.456845,-2.456845 2.4568453,2.4568453 0 0 1 2.456846,2.456845 z"
           id="path10" />
        <path
           style="fill:#5050c8;fill-opacity:1;stroke-width:0.26458332"
           d="m 77.934064,74.908714 a 2.4568453,2.4568453 0 0 1 -2.456845,2.456846 2.4568453,2.4568453 0 0 1 -2.456846,-2.456846 2.4568453,2.4568453 0 0 1 2.456846,-2.456845 2.4568453,2.4568453 0 0 1 2.456845,2.456845 z"
           id="path10-3" />
        <path
           style="fill:#c850c8;fill-opacity:1;stroke-width:0.26458332"
           d="m 88.107923,74.908714 a 2.4568453,2.4568453 0 0 1 -2.456846,2.456846 2.4568453,2.4568453 0 0 1 -2.456845,-2.456846 2.4568453,2.4568453 0 0 1 2.456845,-2.456845 2.4568453,2.4568453 0 0 1 2.456846,2.456845 z"
           id="path10-6" />
        <path
           style="fill:#505050;fill-opacity:1;stroke-width:0.26458332"
           d="m 57.586335,74.908714 a 2.4568453,2.4568453 0 0 1 -2.456845,2.456846 2.4568453,2.4568453 0 0 1 -2.456845,-2.456846 2.4568453,2.4568453 0 0 1 2.456845,-2.456845 2.4568453,2.4568453 0 0 1 2.456845,2.456845 z"
           id="path10-5" />
        <path
           style="fill:#505050;fill-opacity:1;stroke-width:0.26458332"
           d="m 47.412484,74.908714 a 2.4568453,2.4568453 0 0 1 -2.456845,2.456846 2.4568453,2.4568453 0 0 1 -2.456845,-2.456846 2.4568453,2.4568453 0 0 1 2.456845,-2.456845 2.4568453,2.4568453 0 0 1 2.456845,2.456845 z"
           id="path10-5-6" />
        <path
           transform="scale(-1)"
           style="fill:#c85050;fill-opacity:1;stroke-width:0.26458332"
           d="m -113.71579,-98.607819 a 2.4568453,2.4568453 0 0 1 -2.45685,2.456846 2.4568453,2.4568453 0 0 1 -2.45684,-2.456846 2.4568453,2.4568453 0 0 1 2.45684,-2.456841 2.4568453,2.4568453 0 0 1 2.45685,2.456841 z"
           id="path10-1" />
        <path
           transform="scale(-1)"
           style="fill:#c85050;fill-opacity:1;stroke-width:0.26458332"
           d="m -103.54194,-98.607819 a 2.4568453,2.4568453 0 0 1 -2.45685,2.456846 2.4568453,2.4568453 0 0 1 -2.45684,-2.456846 2.4568453,2.4568453 0 0 1 2.45684,-2.456841 2.4568453,2.4568453 0 0 1 2.45685,2.456841 z"
           id="path10-3-2" />
        <path
           transform="scale(-1)"
           style="fill:#c850c8;fill-opacity:1;stroke-width:0.26458332"
           d="m -93.368091,-98.607819 a 2.4568453,2.4568453 0 0 1 -2.456845,2.456846 2.4568453,2.4568453 0 0 1 -2.456845,-2.456846 2.4568453,2.4568453 0 0 1 2.456845,-2.456841 2.4568453,2.4568453 0 0 1 2.456845,2.456841 z"
           id="path10-6-7" />
        <path
           transform="scale(-1)"
           style="fill:#505050;fill-opacity:1;stroke-width:0.26458332"
           d="m -123.88965,-98.607819 a 2.4568453,2.4568453 0 0 1 -2.45685,2.456846 2.4568453,2.4568453 0 0 1 -2.45684,-2.456846 2.4568453,2.4568453 0 0 1 2.45684,-2.456841 2.4568453,2.4568453 0 0 1 2.45685,2.456841 z"
           id="path10-5-0" />
        <path
           transform="scale(-1)"
           style="fill:#505050;fill-opacity:1;stroke-width:0.26458332"
           d="m -134.06353,-98.607819 a 2.4568453,2.4568453 0 0 1 -2.45684,2.456846 2.4568453,2.4568453 0 0 1 -2.45685,-2.456846 2.4568453,2.4568453 0 0 1 2.45685,-2.456841 2.4568453,2.4568453 0 0 1 2.45684,2.456841 z"
           id="path10-5-6-9" />
        <g
           aria-label="uj-2"
           style="font-style:normal;font-weight:normal;font-size:10.58333302px;line-height:1.25;font-family:sans-serif;letter-spacing:0px;word-spacing:0px;fill:#000000;fill-opacity:1;stroke:none;stroke-width:0.26458332"
           id="text1026">
          <path
             d="m 62.124225,67.069494 v -1.635042 h 0.443729 v 1.618161 q 0,0.383439 0.149517,0.576364 0.149517,0.190514 0.448551,0.190514 0.359324,0 0.566719,-0.229099 0.209806,-0.229098 0.209806,-0.624595 v -1.531345 h 0.443728 v 2.700954 h -0.443728 v -0.414789 q -0.161575,0.24598 -0.376205,0.366558 -0.212218,0.118167 -0.494371,0.118167 -0.465432,0 -0.706589,-0.289388 -0.241157,-0.289388 -0.241157,-0.84646 z m 1.116556,-1.700155 z"
             style="font-size:4.93888903px"
             id="path1579" />
          <path
             d="m 65.172101,68.32282 h 0.316949 v 1.963704 q 0,0.368625 -0.141249,0.53399 -0.139526,0.165364 -0.451307,0.165364 h -0.120579 v -0.268717 h 0.08441 q 0.180868,0 0.246325,-0.08441 0.06546,-0.08268 0.06546,-0.346232 z m 0,-0.751031 h 0.316949 v 0.401353 h -0.316949 z"
             style="font-size:3.52777767px;baseline-shift:sub"
             id="path1581" />
          <path
             d="m 65.990311,69.144475 h 0.928454 v 0.282498 h -0.928454 z"
             style="font-size:3.52777767px;baseline-shift:sub"
             id="path1583" />
          <path
             d="m 67.769703,69.95924 h 1.214396 v 0.292833 H 67.351124 V 69.95924 q 0.198093,-0.204983 0.539158,-0.549493 0.342787,-0.346232 0.430636,-0.44614 0.167088,-0.187757 0.232544,-0.316948 0.06718,-0.130914 0.06718,-0.25666 0,-0.204983 -0.144694,-0.334174 -0.142972,-0.129191 -0.373793,-0.129191 -0.163642,0 -0.346232,0.05684 -0.180868,0.05684 -0.387573,0.172255 v -0.3514 q 0.21015,-0.08441 0.39274,-0.127469 0.182591,-0.04306 0.334175,-0.04306 0.399631,0 0.637342,0.199815 0.237712,0.199816 0.237712,0.53399 0,0.158474 -0.06029,0.301446 -0.05857,0.141249 -0.215319,0.334174 -0.04306,0.04995 -0.273885,0.289388 -0.230821,0.237712 -0.651123,0.666626 z"
             style="font-size:3.52777767px;baseline-shift:sub"
             id="path1585" />
        </g>
        <g
           aria-label="uj-1"
           style="font-style:normal;font-weight:normal;font-size:10.58333302px;line-height:1.25;font-family:sans-serif;letter-spacing:0px;word-spacing:0px;fill:#000000;fill-opacity:1;stroke:none;stroke-width:0.26458332"
           id="text1026-3">
          <path
             d="m 72.161136,67.069494 v -1.635042 h 0.443729 v 1.618161 q 0,0.383439 0.149517,0.576364 0.149517,0.190514 0.448551,0.190514 0.359324,0 0.566719,-0.229099 0.209806,-0.229098 0.209806,-0.624595 v -1.531345 h 0.443728 v 2.700954 h -0.443728 v -0.414789 q -0.161575,0.24598 -0.376205,0.366558 -0.212217,0.118167 -0.494371,0.118167 -0.465432,0 -0.706589,-0.289388 -0.241157,-0.289388 -0.241157,-0.84646 z m 1.116556,-1.700155 z"
             style="font-size:4.93888903px;stroke-width:0.26458332"
             id="path1588" />
          <path
             d="m 75.209012,68.32282 h 0.316949 v 1.963704 q 0,0.368625 -0.141249,0.53399 -0.139526,0.165364 -0.451307,0.165364 h -0.120579 v -0.268717 h 0.08441 q 0.180868,0 0.246325,-0.08441 0.06546,-0.08268 0.06546,-0.346232 z m 0,-0.751031 h 0.316949 v 0.401353 h -0.316949 z"
             style="font-size:3.52777767px;baseline-shift:sub;stroke-width:0.26458332"
             id="path1590" />
          <path
             d="m 76.027222,69.144475 h 0.928454 v 0.282498 h -0.928454 z"
             style="font-size:3.52777767px;baseline-shift:sub;stroke-width:0.26458332"
             id="path1592" />
          <path
             d="m 77.56718,69.95924 h 0.568441 v -1.961982 l -0.618395,0.124024 v -0.316949 l 0.61495,-0.124024 h 0.347954 v 2.278931 h 0.568441 v 0.292833 H 77.56718 Z"
             style="font-size:3.52777767px;baseline-shift:sub;stroke-width:0.26458332"
             id="path1594" />
        </g>
        <g
           aria-label="uj"
           style="font-style:normal;font-weight:normal;font-size:10.58333302px;line-height:1.25;font-family:sans-serif;letter-spacing:0px;word-spacing:0px;fill:#000000;fill-opacity:1;stroke:none;stroke-width:0.26458332"
           id="text1026-3-2">
          <path
             d="m 83.973118,67.069494 v -1.635042 h 0.443728 v 1.618161 q 0,0.383439 0.149517,0.576364 0.149517,0.190514 0.448551,0.190514 0.359324,0 0.566719,-0.229099 0.209806,-0.229098 0.209806,-0.624595 v -1.531345 h 0.443728 v 2.700954 h -0.443728 v -0.414789 q -0.161575,0.24598 -0.376204,0.366558 -0.212218,0.118167 -0.494372,0.118167 -0.465432,0 -0.706589,-0.289388 -0.241156,-0.289388 -0.241156,-0.84646 z m 1.116555,-1.700155 z"
             style="font-size:4.93888903px;stroke-width:0.26458332"
             id="path1597" />
          <path
             d="m 87.020994,68.32282 h 0.316948 v 1.963704 q 0,0.368625 -0.141249,0.53399 -0.139526,0.165364 -0.451307,0.165364 h -0.120578 v -0.268717 h 0.0844 q 0.180868,0 0.246325,-0.08441 0.06546,-0.08268 0.06546,-0.346232 z m 0,-0.751031 h 0.316948 v 0.401353 h -0.316948 z"
             style="font-size:3.52777767px;baseline-shift:sub;stroke-width:0.26458332"
             id="path1599" />
        </g>
        <g
           aria-label="uj+2"
           style="font-style:normal;font-weight:normal;font-size:10.58333302px;line-height:1.25;font-family:sans-serif;letter-spacing:0px;word-spacing:0px;fill:#000000;fill-opacity:1;stroke:none;stroke-width:0.26458332"
           id="text1026-3-2-7">
          <path
             d="m 101.92699,103.75293 v -1.63504 h 0.44373 v 1.61816 q 0,0.38344 0.14952,0.57636 0.14951,0.19051 0.44855,0.19051 0.35932,0 0.56672,-0.22909 0.2098,-0.2291 0.2098,-0.6246 v -1.53134 h 0.44373 v 2.70095 h -0.44373 v -0.41479 q -0.16157,0.24598 -0.3762,0.36656 -0.21222,0.11817 -0.49437,0.11817 -0.46544,0 -0.70659,-0.28939 -0.24116,-0.28939 -0.24116,-0.84646 z m 1.11656,-1.70016 z"
             style="font-size:4.93888903px;stroke-width:0.26458332"
             id="path1602" />
          <path
             d="m 104.97487,105.00625 h 0.31695 v 1.96371 q 0,0.36862 -0.14125,0.53399 -0.13953,0.16536 -0.45131,0.16536 h -0.12058 v -0.26872 h 0.0844 q 0.18086,0 0.24632,-0.0844 0.0655,-0.0827 0.0655,-0.34623 z m 0,-0.75103 h 0.31695 v 0.40136 h -0.31695 z"
             style="font-size:3.52777767px;baseline-shift:sub;stroke-width:0.26458332"
             id="path1604" />
          <path
             d="m 107.24346,104.72376 v 0.95945 h 0.95946 v 0.29284 h -0.95946 v 0.95946 h -0.28939 v -0.95946 h -0.95946 v -0.29284 h 0.95946 v -0.95945 z"
             style="font-size:3.52777767px;baseline-shift:sub;stroke-width:0.26458332"
             id="path1606" />
          <path
             d="m 109.25367,106.64267 h 1.2144 v 0.29284 h -1.63297 v -0.29284 q 0.19809,-0.20498 0.53915,-0.54949 0.34279,-0.34623 0.43064,-0.44614 0.16709,-0.18776 0.23254,-0.31695 0.0672,-0.13091 0.0672,-0.25666 0,-0.20498 -0.14469,-0.33417 -0.14297,-0.12919 -0.37379,-0.12919 -0.16365,0 -0.34624,0.0568 -0.18086,0.0568 -0.38757,0.17226 v -0.3514 q 0.21015,-0.0844 0.39274,-0.12747 0.18259,-0.0431 0.33418,-0.0431 0.39963,0 0.63734,0.19982 0.23771,0.19982 0.23771,0.53399 0,0.15847 -0.0603,0.30145 -0.0586,0.14124 -0.21532,0.33417 -0.0431,0.0499 -0.27388,0.28939 -0.23082,0.23771 -0.65113,0.66662 z"
             style="font-size:3.52777767px;baseline-shift:sub;stroke-width:0.26458332"
             id="path1608" />
        </g>
        <g
           aria-label="uj+1"
           style="font-style:normal;font-weight:normal;font-size:10.58333302px;line-height:1.25;font-family:sans-serif;letter-spacing:0px;word-spacing:0px;fill:#000000;fill-opacity:1;stroke:none;stroke-width:0.26458332"
           id="text1026-3-2-2">
          <path
             d="m 91.816128,103.75293 v -1.63504 h 0.443728 v 1.61816 q 0,0.38344 0.149517,0.57636 0.149517,0.19051 0.448551,0.19051 0.359324,0 0.566719,-0.22909 0.209806,-0.2291 0.209806,-0.6246 v -1.53134 h 0.443728 v 2.70095 h -0.443728 v -0.41479 q -0.161575,0.24598 -0.376204,0.36656 -0.212218,0.11817 -0.494372,0.11817 -0.465432,0 -0.706589,-0.28939 -0.241156,-0.28939 -0.241156,-0.84646 z m 1.116555,-1.70016 z"
             style="font-size:4.93888903px;stroke-width:0.26458332"
             id="path1611" />
          <path
             d="m 94.864004,105.00625 h 0.316948 v 1.96371 q 0,0.36862 -0.141249,0.53399 -0.139526,0.16536 -0.451307,0.16536 h -0.120578 v -0.26872 h 0.0844 q 0.180868,0 0.246325,-0.0844 0.06546,-0.0827 0.06546,-0.34623 z m 0,-0.75103 h 0.316948 v 0.40136 h -0.316948 z"
             style="font-size:3.52777767px;baseline-shift:sub;stroke-width:0.26458332"
             id="path1613" />
          <path
             d="m 97.132599,104.72376 v 0.95945 h 0.959459 v 0.29284 h -0.959459 v 0.95946 h -0.289388 v -0.95946 h -0.959459 v -0.29284 h 0.959459 v -0.95945 z"
             style="font-size:3.52777767px;baseline-shift:sub;stroke-width:0.26458332"
             id="path1615" />
          <path
             d="m 98.903378,106.64267 h 0.568441 v -1.96198 l -0.618395,0.12403 v -0.31695 l 0.61495,-0.12403 h 0.347954 v 2.27893 h 0.568442 v 0.29284 h -1.481392 z"
             style="font-size:3.52777767px;baseline-shift:sub;stroke-width:0.26458332"
             id="path1617" />
        </g>
        <g
           aria-label="uj+3"
           style="font-style:normal;font-weight:normal;font-size:10.58333302px;line-height:1.25;font-family:sans-serif;letter-spacing:0px;word-spacing:0px;fill:#000000;fill-opacity:1;stroke:none;stroke-width:0.26458332"
           id="text1026-3-2-9">
          <path
             d="m 112.03785,103.75293 v -1.63504 h 0.44372 v 1.61816 q 0,0.38344 0.14952,0.57636 0.14952,0.19051 0.44855,0.19051 0.35933,0 0.56672,-0.22909 0.20981,-0.2291 0.20981,-0.6246 v -1.53134 h 0.44373 v 2.70095 h -0.44373 v -0.41479 q -0.16158,0.24598 -0.37621,0.36656 -0.21222,0.11817 -0.49437,0.11817 -0.46543,0 -0.70659,-0.28939 -0.24115,-0.28939 -0.24115,-0.84646 z m 1.11655,-1.70016 z"
             style="font-size:4.93888903px;stroke-width:0.26458332"
             id="path1620" />
          <path
             d="m 115.08572,105.00625 h 0.31695 v 1.96371 q 0,0.36862 -0.14125,0.53399 -0.13953,0.16536 -0.45131,0.16536 h -0.12057 v -0.26872 h 0.0844 q 0.18087,0 0.24632,-0.0844 0.0655,-0.0827 0.0655,-0.34623 z m 0,-0.75103 h 0.31695 v 0.40136 h -0.31695 z"
             style="font-size:3.52777767px;baseline-shift:sub;stroke-width:0.26458332"
             id="path1622" />
          <path
             d="m 117.35432,104.72376 v 0.95945 h 0.95946 v 0.29284 h -0.95946 v 0.95946 h -0.28939 v -0.95946 h -0.95946 v -0.29284 h 0.95946 v -0.95945 z"
             style="font-size:3.52777767px;baseline-shift:sub;stroke-width:0.26458332"
             id="path1624" />
          <path
             d="m 120.11901,105.54886 q 0.24977,0.0534 0.38929,0.2222 0.14125,0.16881 0.14125,0.41686 0,0.38068 -0.26183,0.58911 -0.26182,0.20843 -0.74414,0.20843 -0.16192,0 -0.33417,-0.0327 -0.17053,-0.031 -0.35312,-0.0947 v -0.33589 q 0.14469,0.0844 0.31694,0.12746 0.17226,0.0431 0.36002,0.0431 0.32728,0 0.49781,-0.12919 0.17226,-0.12919 0.17226,-0.37552 0,-0.22738 -0.1602,-0.35484 -0.15847,-0.1292 -0.44269,-0.1292 h -0.29973 v -0.28594 h 0.31351 q 0.25666,0 0.39274,-0.10163 0.13608,-0.10335 0.13608,-0.29628 0,-0.19809 -0.14125,-0.30316 -0.13953,-0.1068 -0.40135,-0.1068 -0.14297,0 -0.30662,0.031 -0.16364,0.031 -0.36001,0.0965 v -0.31006 q 0.19809,-0.0551 0.37035,-0.0827 0.17398,-0.0276 0.32728,-0.0276 0.39619,0 0.62701,0.18087 0.23082,0.17915 0.23082,0.48576 0,0.2136 -0.1223,0.36174 -0.1223,0.14641 -0.34795,0.20326 z"
             style="font-size:3.52777767px;baseline-shift:sub;stroke-width:0.26458332"
             id="path1626" />
        </g>
      </g>
    </g>
  </g>
</svg>
