<?xml version="1.0" encoding="UTF-8" standalone="no"?>
<!-- Created with Inkscape (http://www.inkscape.org/) -->

<svg
   xmlns:dc="http://purl.org/dc/elements/1.1/"
   xmlns:cc="http://creativecommons.org/ns#"
   xmlns:rdf="http://www.w3.org/1999/02/22-rdf-syntax-ns#"
   xmlns:svg="http://www.w3.org/2000/svg"
   xmlns="http://www.w3.org/2000/svg"
   xmlns:sodipodi="http://sodipodi.sourceforge.net/DTD/sodipodi-0.dtd"
   xmlns:inkscape="http://www.inkscape.org/namespaces/inkscape"
   width="150"
   height="200"
   viewBox="0 0 39.687499 52.916668"
   version="1.1"
   id="svg8"
   inkscape:version="0.92.3 (2405546, 2018-03-11)"
   sodipodi:docname="Viscosity.svg">
  <defs
     id="defs2" />
  <sodipodi:namedview
     id="base"
     pagecolor="#ffffff"
     bordercolor="#666666"
     borderopacity="1.0"
     inkscape:pageopacity="0.0"
     inkscape:pageshadow="2"
     inkscape:zoom="2.8"
     inkscape:cx="80.049154"
     inkscape:cy="74.75647"
     inkscape:document-units="mm"
     inkscape:current-layer="layer1"
     showgrid="false"
     units="px"
     inkscape:window-width="1920"
     inkscape:window-height="1025"
     inkscape:window-x="0"
     inkscape:window-y="0"
     inkscape:window-maximized="1" />
  <metadata
     id="metadata5">
    <rdf:RDF>
      <cc:Work
         rdf:about="">
        <dc:format>image/svg+xml</dc:format>
        <dc:type
           rdf:resource="http://purl.org/dc/dcmitype/StillImage" />
        <dc:title></dc:title>
      </cc:Work>
    </rdf:RDF>
  </metadata>
  <g
     inkscape:label="Layer 1"
     inkscape:groupmode="layer"
     id="layer1"
     transform="translate(0,-244.08331)">
    <g
       style="font-style:normal;font-weight:normal;font-size:10.58333302px;line-height:1.25;font-family:sans-serif;letter-spacing:0px;word-spacing:0px;fill:#000000;fill-opacity:1;stroke:none;stroke-width:0.26458332"
       id="text1812-6-0" />
    <g
       style="font-style:normal;font-weight:normal;font-size:10.58333302px;line-height:1.25;font-family:sans-serif;letter-spacing:0px;word-spacing:0px;fill:#000000;fill-opacity:1;stroke:none;stroke-width:0.26458332"
       id="text1966" />
    <g
       id="g2015"
       transform="translate(-14.189519,150.73687)">
      <g
         aria-label="uj"
         style="font-style:normal;font-weight:normal;font-size:10.58333302px;line-height:1.25;font-family:sans-serif;letter-spacing:0px;word-spacing:0px;fill:#000000;fill-opacity:1;stroke:none;stroke-width:0.26458332"
         id="text1812">
        <path
           d="m 33.616344,97.112745 v -1.635042 h 0.443729 v 1.618161 q 0,0.383439 0.149517,0.576364 0.149517,0.190514 0.448551,0.190514 0.359324,0 0.566718,-0.229099 0.209807,-0.229098 0.209807,-0.624595 v -1.531345 h 0.443728 v 2.700955 h -0.443728 v -0.41479 q -0.161575,0.24598 -0.376205,0.366558 -0.212218,0.118167 -0.494371,0.118167 -0.465432,0 -0.706589,-0.289388 -0.241157,-0.289388 -0.241157,-0.84646 z M 34.7329,95.41259 Z"
           style="font-size:4.93888903px"
           id="path2019" />
        <path
           d="m 36.630975,97.288996 h 0.285254 v 1.767334 q 0,0.331763 -0.127124,0.480591 -0.125574,0.148828 -0.406177,0.148828 h -0.10852 v -0.241846 h 0.07596 q 0.162781,0 0.221692,-0.07596 0.05891,-0.07441 0.05891,-0.311609 z m 0,-0.675928 h 0.285254 v 0.361219 h -0.285254 z"
           style="font-size:3.17499995px;baseline-shift:sub"
           id="path2021" />
      </g>
      <g
         aria-label="uj+1"
         style="font-style:normal;font-weight:normal;font-size:10.58333302px;line-height:1.25;font-family:sans-serif;letter-spacing:0px;word-spacing:0px;fill:#000000;fill-opacity:1;stroke:none;stroke-width:0.26458332"
         id="text1812-7">
        <path
           d="m 44.57439,107.19774 v -1.63504 h 0.443728 v 1.61816 q 0,0.38344 0.149518,0.57637 0.149517,0.19051 0.448551,0.19051 0.359324,0 0.566718,-0.2291 0.209807,-0.2291 0.209807,-0.62459 v -1.53135 h 0.443728 v 2.70096 h -0.443728 v -0.41479 q -0.161575,0.24598 -0.376205,0.36656 -0.212218,0.11816 -0.494371,0.11816 -0.465432,0 -0.706589,-0.28939 -0.241157,-0.28938 -0.241157,-0.84646 z m 1.116556,-1.70015 z"
           style="font-size:4.93888903px;stroke-width:0.26458332"
           id="path2024" />
        <path
           d="m 47.589021,107.374 h 0.285254 v 1.76733 q 0,0.33176 -0.127124,0.48059 -0.125574,0.14883 -0.406177,0.14883 h -0.10852 v -0.24185 h 0.07596 q 0.162781,0 0.221692,-0.076 0.05891,-0.0744 0.05891,-0.31161 z m 0,-0.67593 h 0.285254 v 0.36122 h -0.285254 z"
           style="font-size:3.17499995px;baseline-shift:sub;stroke-width:0.26458332"
           id="path2026" />
        <path
           d="m 49.630757,107.11975 v 0.86351 h 0.863513 v 0.26355 h -0.863513 v 0.86351 h -0.260449 v -0.86351 h -0.863513 v -0.26355 h 0.863513 v -0.86351 z"
           style="font-size:3.17499995px;baseline-shift:sub;stroke-width:0.26458332"
           id="path2028" />
        <path
           d="m 51.224458,108.84677 h 0.511597 v -1.76578 l -0.556555,0.11162 v -0.28525 l 0.553454,-0.11162 h 0.313159 v 2.05103 h 0.511597 v 0.26355 h -1.333252 z"
           style="font-size:3.17499995px;baseline-shift:sub;stroke-width:0.26458332"
           id="path2030" />
      </g>
      <g
         aria-label="uj-1"
         style="font-style:normal;font-weight:normal;font-size:10.58333302px;line-height:1.25;font-family:sans-serif;letter-spacing:0px;word-spacing:0px;fill:#000000;fill-opacity:1;stroke:none;stroke-width:0.26458332"
         id="text1812-6">
        <path
           d="m 15.508829,122.63257 v -1.63505 h 0.443728 v 1.61817 q 0,0.38343 0.149517,0.57636 0.149517,0.19051 0.448552,0.19051 0.359323,0 0.566718,-0.2291 0.209806,-0.22909 0.209806,-0.62459 v -1.53135 h 0.443729 v 2.70096 H 17.32715 v -0.41479 q -0.161575,0.24598 -0.376204,0.36656 -0.212218,0.11816 -0.494371,0.11816 -0.465433,0 -0.706589,-0.28938 -0.241157,-0.28939 -0.241157,-0.84646 z m 1.116555,-1.70016 z"
           style="font-size:4.93888903px;stroke-width:0.26458332"
           id="path2033" />
        <path
           d="m 18.52346,122.80882 h 0.285254 v 1.76733 q 0,0.33176 -0.127124,0.48059 -0.125574,0.14883 -0.406177,0.14883 h -0.108521 v -0.24185 h 0.07597 q 0.16278,0 0.221692,-0.076 0.05891,-0.0744 0.05891,-0.31161 z m 0,-0.67593 h 0.285254 v 0.36122 H 18.52346 Z"
           style="font-size:3.17499995px;baseline-shift:sub;stroke-width:0.26458332"
           id="path2035" />
        <path
           d="m 19.259849,123.54831 h 0.835608 v 0.25425 h -0.835608 z"
           style="font-size:3.17499995px;baseline-shift:sub;stroke-width:0.26458332"
           id="path2037" />
        <path
           d="m 20.645811,124.2816 h 0.511597 v -1.76579 l -0.556556,0.11162 v -0.28525 l 0.553455,-0.11162 h 0.313159 v 2.05104 h 0.511597 v 0.26355 h -1.333252 z"
           style="font-size:3.17499995px;baseline-shift:sub;stroke-width:0.26458332"
           id="path2039" />
      </g>
      <g
         transform="matrix(1.7274694,0,0,1.7274694,-13.561518,-73.68676)"
         id="g1938">
        <path
           style="fill:none;stroke:#000000;stroke-width:0.26458332;stroke-linecap:butt;stroke-linejoin:miter;stroke-miterlimit:4;stroke-dasharray:0.79375, 0.79375;stroke-dashoffset:0;stroke-opacity:1"
           d="m 19.928827,117.12271 v 8.8352"
           id="path1898"
           inkscape:connector-curvature="0" />
        <path
           style="fill:none;stroke:#000000;stroke-width:0.26458332;stroke-linecap:butt;stroke-linejoin:miter;stroke-miterlimit:4;stroke-dasharray:0.79375, 0.79375;stroke-dashoffset:0;stroke-opacity:1"
           d="m 28.055314,102.52338 v 23.43453"
           id="path1900"
           inkscape:connector-curvature="0" />
        <path
           style="fill:none;stroke:#000000;stroke-width:0.26281673;stroke-linecap:butt;stroke-linejoin:miter;stroke-miterlimit:4;stroke-dasharray:0.78845021, 0.78845021;stroke-dashoffset:0;stroke-opacity:1"
           d="m 36.134556,108.33477 v 17.51349"
           id="path1902"
           inkscape:connector-curvature="0" />
        <path
           style="fill:none;stroke:#000000;stroke-width:0.26647586;stroke-linecap:butt;stroke-linejoin:miter;stroke-miterlimit:4;stroke-dasharray:none;stroke-dashoffset:0;stroke-opacity:1"
           d="M 19.795945,125.95791 H 36.265652"
           id="path1904"
           inkscape:connector-curvature="0" />
        <path
           style="fill:#5050c8;fill-opacity:1;stroke:none;stroke-width:0.26458332;stroke-opacity:1"
           d="m 37.417739,108.24091 a 1.2695302,1.2695302 0 0 1 -1.26953,1.26953 1.2695302,1.2695302 0 0 1 -1.269531,-1.26953 1.2695302,1.2695302 0 0 1 1.269531,-1.26953 1.2695302,1.2695302 0 0 1 1.26953,1.26953 z"
           id="path1854" />
        <path
           style="fill:#5050c8;fill-opacity:1;stroke:none;stroke-width:0.26458332;stroke-opacity:1"
           d="m 29.299422,102.56143 a 1.2695302,1.2695302 0 0 1 -1.26953,1.26953 1.2695302,1.2695302 0 0 1 -1.26953,-1.26953 1.2695302,1.2695302 0 0 1 1.26953,-1.26953 1.2695302,1.2695302 0 0 1 1.26953,1.26953 z"
           id="path1854-2" />
        <path
           style="fill:#5050c8;fill-opacity:1;stroke:none;stroke-width:0.26458332;stroke-opacity:1"
           d="m 21.181105,117.12762 a 1.2695302,1.2695302 0 0 1 -1.26953,1.26953 1.2695302,1.2695302 0 0 1 -1.26953,-1.26953 1.2695302,1.2695302 0 0 1 1.26953,-1.26953 1.2695302,1.2695302 0 0 1 1.26953,1.26953 z"
           id="path1854-2-7" />
        <path
           style="fill:none;stroke:#5050c8;stroke-width:0.52916676;stroke-linecap:butt;stroke-linejoin:miter;stroke-miterlimit:4;stroke-dasharray:none;stroke-opacity:1"
           d="m 19.928825,117.12272 8.126489,-14.59934 8.079242,5.81139"
           id="path1888"
           inkscape:connector-curvature="0" />
      </g>
      <g
         aria-label="Δx"
         style="font-style:normal;font-weight:normal;font-size:10.58333302px;line-height:1.25;font-family:sans-serif;letter-spacing:0px;word-spacing:0px;fill:#000000;fill-opacity:1;stroke:none;stroke-width:0.26458332"
         id="text1970">
        <path
           d="m 26.534666,139.59426 -0.988743,2.71543 h 1.979897 z m -1.649512,3.12057 1.374593,-3.60047 h 0.552249 l 1.372182,3.60047 z"
           style="font-size:4.93888903px;stroke-width:0.26458332"
           id="path2045" />
        <path
           d="m 30.933364,140.01387 -0.976685,1.31431 1.027328,1.38665 h -0.52331 l -0.786171,-1.06109 -0.786171,1.06109 h -0.52331 l 1.049032,-1.41318 -0.959804,-1.28778 h 0.52331 l 0.716236,0.96222 0.716235,-0.96222 z"
           style="font-size:4.93888903px;stroke-width:0.26458332"
           id="path2047" />
      </g>
      <g
         aria-label="Δx"
         style="font-style:normal;font-weight:normal;font-size:10.58333302px;line-height:1.25;font-family:sans-serif;letter-spacing:0px;word-spacing:0px;fill:#000000;fill-opacity:1;stroke:none;stroke-width:0.26458332"
         id="text1970-0">
        <path
           d="m 40.561403,139.59426 -0.988742,2.71543 h 1.979896 z m -1.649512,3.12057 1.374593,-3.60047 h 0.552249 l 1.372182,3.60047 z"
           style="font-size:4.93888903px;stroke-width:0.26458332"
           id="path2050" />
        <path
           d="m 44.960101,140.01387 -0.976684,1.31431 1.027327,1.38665 h -0.52331 l -0.786171,-1.06109 -0.78617,1.06109 h -0.523311 l 1.049032,-1.41318 -0.959804,-1.28778 h 0.52331 l 0.716236,0.96222 0.716235,-0.96222 z"
           style="font-size:4.93888903px;stroke-width:0.26458332"
           id="path2052" />
      </g>
    </g>
  </g>
</svg>
