<?xml version="1.0" encoding="UTF-8" standalone="no"?>
<!-- Created with Inkscape (http://www.inkscape.org/) -->

<svg
   xmlns:dc="http://purl.org/dc/elements/1.1/"
   xmlns:cc="http://creativecommons.org/ns#"
   xmlns:rdf="http://www.w3.org/1999/02/22-rdf-syntax-ns#"
   xmlns:svg="http://www.w3.org/2000/svg"
   xmlns="http://www.w3.org/2000/svg"
   xmlns:sodipodi="http://sodipodi.sourceforge.net/DTD/sodipodi-0.dtd"
   xmlns:inkscape="http://www.inkscape.org/namespaces/inkscape"
   width="350"
   height="200"
   viewBox="0 0 92.604164 52.916668"
   version="1.1"
   id="svg1399"
   inkscape:version="0.92.3 (2405546, 2018-03-11)"
   sodipodi:docname="WENO.svg">
  <defs
     id="defs1393" />
  <sodipodi:namedview
     id="base"
     pagecolor="#ffffff"
     bordercolor="#666666"
     borderopacity="1.0"
     inkscape:pageopacity="0.0"
     inkscape:pageshadow="2"
     inkscape:zoom="1.4"
     inkscape:cx="281.50244"
     inkscape:cy="110.17517"
     inkscape:document-units="mm"
     inkscape:current-layer="layer1"
     showgrid="false"
     units="px"
     inkscape:window-width="1920"
     inkscape:window-height="1025"
     inkscape:window-x="0"
     inkscape:window-y="0"
     inkscape:window-maximized="1" />
  <metadata
     id="metadata1396">
    <rdf:RDF>
      <cc:Work
         rdf:about="">
        <dc:format>image/svg+xml</dc:format>
        <dc:type
           rdf:resource="http://purl.org/dc/dcmitype/StillImage" />
        <dc:title></dc:title>
      </cc:Work>
    </rdf:RDF>
  </metadata>
  <g
     inkscape:label="Layer 1"
     inkscape:groupmode="layer"
     id="layer1"
     transform="translate(0,-244.08332)">
    <g
       id="g1391"
       transform="translate(-40.459193,137.01636)">
      <path
         sodipodi:nodetypes="cccc"
         inkscape:connector-curvature="0"
         id="path958-3"
         d="m 45.877855,121.75414 h 40.758602 l 10.156244,23.66346 30.875869,0.0945"
         style="fill:none;stroke:#505050;stroke-width:0.53151226;stroke-linecap:butt;stroke-linejoin:miter;stroke-miterlimit:4;stroke-dasharray:none;stroke-opacity:1" />
      <path
         style="fill:#5050c8;fill-opacity:1;stroke-width:0.26458332"
         d="m 68.870404,121.88213 a 2.4568453,2.4568453 0 0 1 -2.456845,2.45685 2.4568453,2.4568453 0 0 1 -2.456845,-2.45685 2.4568453,2.4568453 0 0 1 2.456845,-2.45684 2.4568453,2.4568453 0 0 1 2.456845,2.45684 z"
         id="path10-61" />
      <path
         style="fill:#5050c8;fill-opacity:1;stroke-width:0.26458332"
         d="m 79.044271,121.88213 a 2.4568453,2.4568453 0 0 1 -2.456846,2.45685 2.4568453,2.4568453 0 0 1 -2.456845,-2.45685 2.4568453,2.4568453 0 0 1 2.456845,-2.45684 2.4568453,2.4568453 0 0 1 2.456846,2.45684 z"
         id="path10-3-29" />
      <path
         style="fill:#c850c8;fill-opacity:1;stroke-width:0.26458332"
         d="m 89.218129,121.88213 a 2.4568453,2.4568453 0 0 1 -2.456845,2.45685 2.4568453,2.4568453 0 0 1 -2.456845,-2.45685 2.4568453,2.4568453 0 0 1 2.456845,-2.45684 2.4568453,2.4568453 0 0 1 2.456845,2.45684 z"
         id="path10-6-3" />
      <path
         style="fill:#505050;fill-opacity:1;stroke-width:0.26458332"
         d="m 58.696546,121.88213 a 2.4568453,2.4568453 0 0 1 -2.456846,2.45685 2.4568453,2.4568453 0 0 1 -2.456845,-2.45685 2.4568453,2.4568453 0 0 1 2.456845,-2.45684 2.4568453,2.4568453 0 0 1 2.456846,2.45684 z"
         id="path10-5-1" />
      <path
         style="fill:#505050;fill-opacity:1;stroke-width:0.26458332"
         d="m 48.522695,121.88213 a 2.4568453,2.4568453 0 0 1 -2.456846,2.45685 2.4568453,2.4568453 0 0 1 -2.456845,-2.45685 2.4568453,2.4568453 0 0 1 2.456845,-2.45684 2.4568453,2.4568453 0 0 1 2.456846,2.45684 z"
         id="path10-5-6-94" />
      <path
         transform="scale(-1)"
         style="fill:#505050;fill-opacity:1;stroke-width:0.26458332"
         d="m -114.82599,-145.58124 a 2.4568453,2.4568453 0 0 1 -2.45685,2.45685 2.4568453,2.4568453 0 0 1 -2.45684,-2.45685 2.4568453,2.4568453 0 0 1 2.45684,-2.45684 2.4568453,2.4568453 0 0 1 2.45685,2.45684 z"
         id="path10-1-7" />
      <path
         transform="scale(-1)"
         style="fill:#5050c8;fill-opacity:1;stroke-width:0.26458332"
         d="m -104.65215,-145.58124 a 2.4568453,2.4568453 0 0 1 -2.45684,2.45685 2.4568453,2.4568453 0 0 1 -2.45685,-2.45685 2.4568453,2.4568453 0 0 1 2.45685,-2.45684 2.4568453,2.4568453 0 0 1 2.45684,2.45684 z"
         id="path10-3-2-8" />
      <path
         transform="scale(-1)"
         style="fill:#5050c8;fill-opacity:1;stroke-width:0.26458332"
         d="m -94.478297,-145.58124 a 2.4568453,2.4568453 0 0 1 -2.456846,2.45685 2.4568453,2.4568453 0 0 1 -2.456845,-2.45685 2.4568453,2.4568453 0 0 1 2.456845,-2.45684 2.4568453,2.4568453 0 0 1 2.456846,2.45684 z"
         id="path10-6-7-4" />
      <path
         transform="scale(-1)"
         style="fill:#505050;fill-opacity:1;stroke-width:0.26458332"
         d="m -124.99986,-145.58124 a 2.4568453,2.4568453 0 0 1 -2.45684,2.45685 2.4568453,2.4568453 0 0 1 -2.45685,-2.45685 2.4568453,2.4568453 0 0 1 2.45685,-2.45684 2.4568453,2.4568453 0 0 1 2.45684,2.45684 z"
         id="path10-5-0-5" />
      <g
         aria-label="uj-2"
         style="font-style:normal;font-weight:normal;font-size:10.58333302px;line-height:1.25;font-family:sans-serif;letter-spacing:0px;word-spacing:0px;fill:#000000;fill-opacity:1;stroke:none;stroke-width:0.26458332"
         id="text1026-36">
        <path
           d="m 62.95095,114.04291 v -1.63505 h 0.443729 v 1.61816 q 0,0.38344 0.149517,0.57637 0.149517,0.19051 0.448551,0.19051 0.359324,0 0.566719,-0.2291 0.209806,-0.22909 0.209806,-0.62459 v -1.53135 H 65.213 v 2.70096 h -0.443728 v -0.41479 q -0.161575,0.24598 -0.376205,0.36656 -0.212217,0.11816 -0.494371,0.11816 -0.465432,0 -0.706589,-0.28938 -0.241157,-0.28939 -0.241157,-0.84646 z m 1.116556,-1.70016 z"
           style="font-size:4.93888903px"
           id="path1762" />
        <path
           d="m 65.998826,115.29623 h 0.316949 v 1.96371 q 0,0.36862 -0.141249,0.53399 -0.139526,0.16536 -0.451307,0.16536 H 65.60264 v -0.26872 h 0.08441 q 0.180868,0 0.246325,-0.0844 0.06546,-0.0827 0.06546,-0.34623 z m 0,-0.75103 h 0.316949 v 0.40135 h -0.316949 z"
           style="font-size:3.52777767px;baseline-shift:sub"
           id="path1764" />
        <path
           d="m 66.817036,116.11789 h 0.928454 v 0.28249 h -0.928454 z"
           style="font-size:3.52777767px;baseline-shift:sub"
           id="path1766" />
        <path
           d="m 68.596428,116.93265 h 1.214396 v 0.29283 h -1.632975 v -0.29283 q 0.198093,-0.20498 0.539158,-0.54949 0.342787,-0.34623 0.430636,-0.44614 0.167088,-0.18776 0.232544,-0.31695 0.06718,-0.13091 0.06718,-0.25666 0,-0.20498 -0.144694,-0.33417 -0.142972,-0.12919 -0.373793,-0.12919 -0.163642,0 -0.346232,0.0568 -0.180868,0.0568 -0.387573,0.17225 v -0.3514 q 0.21015,-0.0844 0.39274,-0.12746 0.182591,-0.0431 0.334175,-0.0431 0.399631,0 0.637342,0.19982 0.237712,0.19981 0.237712,0.53399 0,0.15847 -0.06029,0.30144 -0.05857,0.14125 -0.215319,0.33418 -0.04306,0.0499 -0.273885,0.28939 -0.230821,0.23771 -0.651123,0.66662 z"
           style="font-size:3.52777767px;baseline-shift:sub"
           id="path1768" />
      </g>
      <g
         aria-label="uj-1"
         style="font-style:normal;font-weight:normal;font-size:10.58333302px;line-height:1.25;font-family:sans-serif;letter-spacing:0px;word-spacing:0px;fill:#000000;fill-opacity:1;stroke:none;stroke-width:0.26458332"
         id="text1026-3-20">
        <path
           d="m 73.129596,114.04291 v -1.63505 h 0.443729 v 1.61816 q 0,0.38344 0.149517,0.57637 0.149517,0.19051 0.448551,0.19051 0.359324,0 0.566719,-0.2291 0.209806,-0.22909 0.209806,-0.62459 v -1.53135 h 0.443728 v 2.70096 h -0.443728 v -0.41479 q -0.161575,0.24598 -0.376205,0.36656 -0.212217,0.11816 -0.494371,0.11816 -0.465432,0 -0.706589,-0.28938 -0.241157,-0.28939 -0.241157,-0.84646 z m 1.116556,-1.70016 z"
           style="font-size:4.93888903px;stroke-width:0.26458332"
           id="path1771" />
        <path
           d="m 76.177472,115.29623 h 0.316949 v 1.96371 q 0,0.36862 -0.141249,0.53399 -0.139526,0.16536 -0.451307,0.16536 h -0.120578 v -0.26872 h 0.0844 q 0.180868,0 0.246325,-0.0844 0.06546,-0.0827 0.06546,-0.34623 z m 0,-0.75103 h 0.316949 v 0.40135 h -0.316949 z"
           style="font-size:3.52777767px;baseline-shift:sub;stroke-width:0.26458332"
           id="path1773" />
        <path
           d="m 76.995682,116.11789 h 0.928454 v 0.28249 h -0.928454 z"
           style="font-size:3.52777767px;baseline-shift:sub;stroke-width:0.26458332"
           id="path1775" />
        <path
           d="m 78.53564,116.93265 h 0.568441 v -1.96198 l -0.618395,0.12402 v -0.31695 l 0.61495,-0.12402 h 0.347954 v 2.27893 h 0.568441 v 0.29283 H 78.53564 Z"
           style="font-size:3.52777767px;baseline-shift:sub;stroke-width:0.26458332"
           id="path1777" />
      </g>
      <g
         aria-label="uj"
         style="font-style:normal;font-weight:normal;font-size:10.58333302px;line-height:1.25;font-family:sans-serif;letter-spacing:0px;word-spacing:0px;fill:#000000;fill-opacity:1;stroke:none;stroke-width:0.26458332"
         id="text1026-3-2-4">
        <path
           d="m 85.083324,114.04291 v -1.63505 h 0.443729 v 1.61816 q 0,0.38344 0.149517,0.57637 0.149517,0.19051 0.448551,0.19051 0.359324,0 0.566718,-0.2291 0.209807,-0.22909 0.209807,-0.62459 v -1.53135 h 0.443728 v 2.70096 h -0.443728 v -0.41479 q -0.161575,0.24598 -0.376205,0.36656 -0.212218,0.11816 -0.494371,0.11816 -0.465432,0 -0.706589,-0.28938 -0.241157,-0.28939 -0.241157,-0.84646 z m 1.116556,-1.70016 z"
           style="font-size:4.93888903px;stroke-width:0.26458332"
           id="path1780" />
        <path
           d="m 88.1312,115.29623 h 0.316949 v 1.96371 q 0,0.36862 -0.141249,0.53399 -0.139526,0.16536 -0.451307,0.16536 h -0.120579 v -0.26872 h 0.0844 q 0.180868,0 0.246324,-0.0844 0.06546,-0.0827 0.06546,-0.34623 z m 0,-0.75103 h 0.316949 v 0.40135 H 88.1312 Z"
           style="font-size:3.52777767px;baseline-shift:sub;stroke-width:0.26458332"
           id="path1782" />
      </g>
      <g
         aria-label="uj+2"
         style="font-style:normal;font-weight:normal;font-size:10.58333302px;line-height:1.25;font-family:sans-serif;letter-spacing:0px;word-spacing:0px;fill:#000000;fill-opacity:1;stroke:none;stroke-width:0.26458332"
         id="text1026-3-2-7-9">
        <path
           d="m 103.03719,150.72634 v -1.63504 h 0.44373 v 1.61816 q 0,0.38344 0.14951,0.57636 0.14952,0.19052 0.44856,0.19052 0.35932,0 0.56671,-0.2291 0.20981,-0.2291 0.20981,-0.6246 v -1.53134 h 0.44373 v 2.70095 h -0.44373 v -0.41479 q -0.16157,0.24598 -0.3762,0.36656 -0.21222,0.11817 -0.49437,0.11817 -0.46544,0 -0.70659,-0.28939 -0.24116,-0.28939 -0.24116,-0.84646 z m 1.11655,-1.70016 z"
           style="font-size:4.93888903px;stroke-width:0.26458332"
           id="path1785" />
        <path
           d="m 106.08507,151.97966 h 0.31694 v 1.96371 q 0,0.36862 -0.14124,0.53399 -0.13953,0.16536 -0.45131,0.16536 h -0.12058 v -0.26871 h 0.0844 q 0.18087,0 0.24633,-0.0844 0.0655,-0.0827 0.0655,-0.34623 z m 0,-0.75103 h 0.31694 v 0.40136 h -0.31694 z"
           style="font-size:3.52777767px;baseline-shift:sub;stroke-width:0.26458332"
           id="path1787" />
        <path
           d="m 108.35366,151.69717 v 0.95946 h 0.95946 v 0.29283 h -0.95946 v 0.95946 h -0.28939 v -0.95946 h -0.95946 v -0.29283 h 0.95946 v -0.95946 z"
           style="font-size:3.52777767px;baseline-shift:sub;stroke-width:0.26458332"
           id="path1789" />
        <path
           d="m 110.36387,153.61609 h 1.2144 v 0.29283 h -1.63298 v -0.29283 q 0.1981,-0.20499 0.53916,-0.5495 0.34279,-0.34623 0.43064,-0.44614 0.16709,-0.18776 0.23254,-0.31695 0.0672,-0.13091 0.0672,-0.25666 0,-0.20498 -0.14469,-0.33417 -0.14297,-0.12919 -0.37379,-0.12919 -0.16365,0 -0.34624,0.0568 -0.18086,0.0568 -0.38757,0.17226 v -0.3514 q 0.21015,-0.0844 0.39274,-0.12747 0.18259,-0.0431 0.33418,-0.0431 0.39963,0 0.63734,0.19981 0.23771,0.19982 0.23771,0.53399 0,0.15848 -0.0603,0.30145 -0.0586,0.14125 -0.21532,0.33417 -0.0431,0.0499 -0.27388,0.28939 -0.23082,0.23771 -0.65113,0.66663 z"
           style="font-size:3.52777767px;baseline-shift:sub;stroke-width:0.26458332"
           id="path1791" />
      </g>
      <g
         aria-label="uj+1"
         style="font-style:normal;font-weight:normal;font-size:10.58333302px;line-height:1.25;font-family:sans-serif;letter-spacing:0px;word-spacing:0px;fill:#000000;fill-opacity:1;stroke:none;stroke-width:0.26458332"
         id="text1026-3-2-2-5">
        <path
           d="m 92.926334,150.72634 v -1.63504 h 0.443728 v 1.61816 q 0,0.38344 0.149518,0.57636 0.149517,0.19052 0.448551,0.19052 0.359324,0 0.566718,-0.2291 0.209807,-0.2291 0.209807,-0.6246 v -1.53134 h 0.443728 v 2.70095 h -0.443728 v -0.41479 q -0.161575,0.24598 -0.376205,0.36656 -0.212218,0.11817 -0.494371,0.11817 -0.465432,0 -0.706589,-0.28939 -0.241157,-0.28939 -0.241157,-0.84646 z m 1.116556,-1.70016 z"
           style="font-size:4.93888903px;stroke-width:0.26458332"
           id="path1794" />
        <path
           d="m 95.97421,151.97966 h 0.316949 v 1.96371 q 0,0.36862 -0.141249,0.53399 -0.139526,0.16536 -0.451307,0.16536 h -0.120579 v -0.26871 h 0.08441 q 0.180868,0 0.246324,-0.0844 0.06546,-0.0827 0.06546,-0.34623 z m 0,-0.75103 h 0.316949 v 0.40136 H 95.97421 Z"
           style="font-size:3.52777767px;baseline-shift:sub;stroke-width:0.26458332"
           id="path1796" />
        <path
           d="m 98.242805,151.69717 v 0.95946 h 0.959459 v 0.29283 h -0.959459 v 0.95946 h -0.289388 v -0.95946 h -0.959459 v -0.29283 h 0.959459 v -0.95946 z"
           style="font-size:3.52777767px;baseline-shift:sub;stroke-width:0.26458332"
           id="path1798" />
        <path
           d="m 100.01358,153.61609 h 0.56845 v -1.96199 l -0.618399,0.12403 v -0.31695 l 0.614949,-0.12403 h 0.34795 v 2.27894 h 0.56845 v 0.29283 h -1.4814 z"
           style="font-size:3.52777767px;baseline-shift:sub;stroke-width:0.26458332"
           id="path1800" />
      </g>
    </g>
  </g>
</svg>
